<?xml version="1.0" encoding="UTF-8"?>
<svg xmlns="http://www.w3.org/2000/svg" version="1.1" xmlns:xlink="http://www.w3.org/1999/xlink" viewBox="0 0 704 256">
  <defs>
    <style>
      .cls-1 {
        fill: #000;
      }

      .cls-1, .cls-2, .cls-3, .cls-4 {
        stroke-width: 0px;
      }

      .cls-2 {
        fill: #8cc63f;
      }

      .cls-5 {
        isolation: isolate;
      }

      .cls-6 {
        fill: #fff;
        font-family: Catalpa-Extrabold, Catalpa;
        font-size: 324.4px;
        font-weight: 700;
      }

      .cls-3 {
        fill: none;
      }

      .cls-7 {
        clip-path: url(#clippath-1);
      }

      .cls-8 {
        clip-path: url(#clippath);
      }

      .cls-4 {
        fill: #fcee21;
      }
    </style>
    <clipPath id="clippath">
      <polygon class="cls-3" points="47 202.6 47.4 33.8 394.3 -15 394 153.8 47 202.6"/>
    </clipPath>
    <clipPath id="clippath-1">
      <polygon class="cls-3" points="430.2 249.2 430.4 103.5 662.6 70.9 662.4 216.6 430.2 249.2"/>
    </clipPath>
  </defs>
  <g id="Layer_2" data-name="Layer 2">
    <rect class="cls-1" x="-42.8" y="-76" width="456.9" height="379.9" transform="translate(42.1 -49.9) rotate(17.2)"/>
    <rect class="cls-2" x="421.4" y="-46.3" width="325.5" height="387.5" transform="translate(69.9 -166.4) rotate(17.2)"/>
  </g>
  <g id="Layer_1" data-name="Layer 1">
    <g class="cls-5">
      <g class="cls-8">
        <g>
          <polyline class="cls-4" points="75.6 29.8 47.4 33.8 47 199.3 96.1 192.4 96.3 129.2 75.4 132.2 75.6 29.8"/>
          <path class="cls-4" d="M126.2,110.1c.2-8.3,2.9-14.6,6.7-15.1s6.5,3.1,6.3,13.3l-13,1.8M132.8,62.6c-19.1,2.7-31.9,30.7-32,69.7s11.8,61,33.6,57.9c7.2-1,18.6-7.1,25.1-21.3l-9.3-33.9c-3.6,7.4-7.8,10.6-12.1,11.2-6.8,1-9.6-3.6-11.1-11l33.6-4.7c.3-40.2-5.2-71.1-27.8-68"/>
          <path class="cls-4" d="M237.1,48.5c-5.9.8-13,8.2-16.4,23.6-2.6-13.6-7.6-20.2-14.7-19.2s-13.4,9.7-16.1,21.6v-16.5s-23.5,3.3-23.5,3.3l-.2,121.3,25.6-3.6v-58.9c.1-9,1.8-11.8,3.5-12.1s2.6,2.7,2.5,9.8v60.3c-.1,0,25-3.5,25-3.5v-58.9c.1-9,1.7-11.8,3.4-12s2.7,3.4,2.7,10v60.1c-.1,0,25.5-3.6,25.5-3.6v-72.3c.2-37.4-7.1-50.8-17.3-49.3"/>
          <path class="cls-4" d="M293.3,122.1c-4.5.6-7.3-5.8-7.3-17.2,0-11.4,2.8-19.1,7.3-19.7s7.5,5.8,7.5,17.6-2.9,18.6-7.5,19.3M293.4,40.1c-21.8,3.1-33.7,34.1-33.8,69.1,0,35.7,11.8,61.9,33.6,58.9,21.9-3.1,33.9-34.1,34-69.1,0-35.7-11.9-61.9-33.8-58.8"/>
          <path class="cls-4" d="M375,28.6c-8.4,1.2-14,10.2-17,22.2v-16.5s-25,3.5-25,3.5l-.2,121.3,26.1-3.7v-56.3c.1-9,1.8-14.4,5.3-14.9s3.9,3.2,3.9,11.5v58.4c-.1,0,26-3.7,26-3.7v-72.8c.2-36.9-8.6-50.5-19-49.1"/>
        </g>
      </g>
    </g>
    <g class="cls-5">
      <g class="cls-7">
        <g>
          <polyline class="cls-1" points="505.4 102.7 471.8 107.4 462.5 155.7 459.5 156.2 459.5 109.1 430.4 113.2 430.2 249.2 459.3 245.1 459.4 206.9 463.8 199.6 473.2 243.2 506.3 238.5 487 166.9 505.4 102.7"/>
          <path class="cls-1" d="M537.1,134.6l-26.9,3.8-.2,99.7,26.9-3.8.2-99.7M537.2,88.5l-26.9,3.8v29.1c0,0,26.9-3.8,26.9-3.8v-29.1"/>
          <polyline class="cls-1" points="631.9 121.2 605.1 125 601.3 172.9 589.7 127.2 584.4 127.9 571.2 177.4 567.6 130.3 540.8 134 553 232 575.6 228.8 585.7 189.9 595.7 226 619.4 222.6 631.9 121.2"/>
          <path class="cls-1" d="M662.5,116.9l-26.9,3.8-.2,99.7,26.9-3.8.2-99.7M662.6,70.9l-26.9,3.8v29.1c0,0,26.9-3.8,26.9-3.8v-29.1"/>
        </g>
      </g>
    </g>
    <text class="cls-6" transform="translate(759.2 319) rotate(8.6) scale(.3 1)"><tspan x="0" y="0">/</tspan></text>
  </g>
</svg>